<svg width="56" height="56" viewBox="0 0 56 56" fill="none" xmlns="http://www.w3.org/2000/svg">
<rect y="32.102" width="23.8981" height="23.8981" rx="3.56688" fill="white"/>
<path d="M29.9619 22.4712C29.9619 24.4411 31.5589 26.0381 33.5288 26.0381H52.4331C54.4031 26.0381 56 27.635 56 29.605V51.0064C56 52.9763 54.4031 54.5732 52.4331 54.5732H31.0317C29.0618 54.5732 27.4648 52.9763 27.4648 51.0064V32.102C27.4648 30.1321 25.8679 28.5352 23.898 28.5352H4.99364C3.0237 28.5352 1.42676 26.9382 1.42676 24.9683V3.56688C1.42676 1.59695 3.0237 0 4.99364 0H26.395C28.365 0 29.9619 1.59695 29.9619 3.56688V22.4712Z" fill="white"/>
</svg>
